<?xml version="1.0" encoding="UTF-8" standalone="no"?>
<svg width="274px" height="156px" viewBox="0 0 274 156" version="1.1" xmlns="http://www.w3.org/2000/svg" xmlns:xlink="http://www.w3.org/1999/xlink">
    <defs></defs>
    <g id="Page-1" stroke="none" stroke-width="1" fill="none" fill-rule="evenodd">
        <g id="2014-11-24-awake-logo">
            <path d="M34.089,97.805 L20.196,99.057 C12.937,99.683 8.43,104.063 8.43,110.193 C8.43,115.827 13.186,120.081 19.196,120.081 C25.953,120.081 34.089,114.325 34.089,105.438 L34.089,97.805 L34.089,97.805 Z M43.978,126.842 C40.098,126.089 36.218,122.585 35.466,118.207 C32.462,123.465 25.953,126.842 18.944,126.842 C8.305,126.842 0.796,119.46 0.796,110.193 C0.796,99.057 9.683,93.55 18.944,92.674 L34.089,91.168 L34.089,85.788 C34.089,78.904 29.207,74.523 20.699,74.523 C15.315,74.523 9.434,76.276 5.678,78.778 L4.05,72.147 C8.43,69.143 14.689,67.64 21.072,67.64 C33.213,67.64 42.099,74.398 42.099,86.538 L42.099,112.45 C42.099,118.081 45.48,121.087 49.108,121.71 L43.978,126.842 L43.978,126.842 Z" id="Fill-1" fill="#54534F"></path>
            <path d="M105.19,126.717 L102.687,126.717 L91.295,95.8 C89.417,90.671 87.666,85.538 86.04,80.028 L85.787,80.028 C84.036,85.661 82.284,90.671 80.534,95.551 L69.142,126.717 L66.512,126.717 L45.36,68.888 L52.998,68.888 L63.259,97.18 C65.013,102.06 66.64,106.941 67.889,111.322 L68.14,111.322 C69.394,106.941 71.145,101.684 72.773,97.302 L83.034,68.888 L89.044,68.888 L99.305,97.18 C100.932,101.557 102.558,106.439 103.937,111.322 L104.186,111.322 C105.69,106.439 107.315,101.811 108.942,97.302 L119.081,68.888 L126.341,68.888 L105.19,126.717" id="Fill-2" fill="#54534F"></path>
            <path d="M160.366,97.805 L146.476,99.057 C139.218,99.683 134.709,104.063 134.709,110.193 C134.709,115.827 139.465,120.081 145.476,120.081 C152.231,120.081 160.366,114.325 160.366,105.438 L160.366,97.805 L160.366,97.805 Z M170.256,126.842 C166.376,126.089 162.495,122.585 161.746,118.207 C158.742,123.465 152.231,126.842 145.222,126.842 C134.583,126.842 127.077,119.46 127.077,110.193 C127.077,99.057 135.963,93.55 145.222,92.674 L160.366,91.168 L160.366,85.788 C160.366,78.904 155.486,74.523 146.976,74.523 C141.594,74.523 135.714,76.276 131.956,78.778 L130.328,72.147 C134.709,69.143 140.967,67.64 147.352,67.64 C159.492,67.64 168.378,74.398 168.378,86.538 L168.378,112.45 C168.378,118.081 171.761,121.087 175.387,121.71 L170.256,126.842 L170.256,126.842 Z" id="Fill-3" fill="#54534F"></path>
            <path d="M215.06,125.591 L188.148,98.056 L188.148,125.591 L180.261,125.591 L180.261,36.474 L188.148,36.474 L188.148,95.928 L214.434,68.888 L223.945,68.888 L197.159,96.677 L225.326,125.591 L215.06,125.591" id="Fill-4" fill="#54534F"></path>
            <path d="M249.598,74.523 C240.334,74.523 232.204,82.535 230.699,90.794 L264.995,90.794 C265.118,90.295 265.118,89.795 265.118,89.166 C265.118,82.535 259.859,74.523 249.598,74.523 L249.598,74.523 Z M272.757,92.674 L267.998,97.302 L230.073,97.302 C229.319,108.689 238.71,119.831 252.602,119.831 C259.361,119.831 264.869,118.207 270.374,114.2 L268.124,122.963 C263.742,125.466 258.737,126.842 251.729,126.842 C235.454,126.842 221.813,114.701 221.813,97.302 C221.813,79.03 235.706,67.64 249.224,67.64 C264.743,67.64 273.006,78.404 273.006,88.791 C273.006,90.166 273.006,91.546 272.757,92.674 L272.757,92.674 Z" id="Fill-5" fill="#54534F"></path>
            <path d="M1.506,138.481 L4.538,138.481 L4.538,140.709 C4.538,141.387 4.441,141.934 4.441,141.934 L4.507,141.934 C5.119,140.514 7.119,138.097 10.7,138.097 C14.539,138.097 16.281,140.193 16.281,144.352 L16.281,154.805 L13.151,154.805 L13.151,145.063 C13.151,142.771 12.7,140.966 10.087,140.966 C6.894,140.966 4.636,143.612 4.636,146.967 L4.636,154.805 L1.506,154.805 L1.506,138.481" id="Fill-6" fill="#54534F"></path>
            <path d="M51.34,144.805 C51.244,141.998 49.501,140.514 47.372,140.514 C44.953,140.514 43.05,142.093 42.598,144.805 L51.34,144.805 L51.34,144.805 Z M47.437,138.097 C52.05,138.097 54.501,141.546 54.501,145.739 C54.501,146.161 54.437,146.61 54.373,147.065 L42.501,147.065 C42.664,150.579 45.179,152.484 48.114,152.484 C49.856,152.484 51.63,151.739 52.92,150.579 L54.244,152.869 C52.664,154.32 50.179,155.19 47.921,155.19 C42.791,155.19 39.244,151.48 39.244,146.645 C39.244,141.449 42.791,138.097 47.437,138.097 L47.437,138.097 Z" id="Fill-7" fill="#54534F"></path>
            <path d="M78.304,141.191 L76.174,141.191 L76.174,138.643 L78.368,138.643 L78.368,133.998 L81.433,133.998 L81.433,138.643 L85.368,138.643 L85.368,141.191 L81.433,141.191 L81.433,148.481 C81.433,151.739 83.724,152.16 84.916,152.16 C85.143,152.16 85.336,152.16 85.659,152.098 L85.659,154.87 C85.4,154.901 85.045,154.966 84.561,154.966 C82.465,154.966 78.304,154.289 78.304,148.837 L78.304,141.191" id="Fill-8" fill="#54534F"></path>
            <path d="M106.591,138.481 L109.913,138.481 L113.3,149.934 C113.559,150.771 113.719,151.675 113.719,151.675 L113.784,151.675 C113.784,151.675 113.978,150.771 114.236,149.934 L117.752,138.515 L120.656,138.515 L124.171,149.934 C124.399,150.771 124.589,151.675 124.589,151.675 L124.656,151.675 C124.656,151.675 124.817,150.771 125.073,149.934 L128.492,138.481 L131.753,138.481 L126.526,154.805 L123.044,154.805 L119.688,144.32 C119.398,143.481 119.203,142.547 119.203,142.547 L119.141,142.547 C119.141,142.547 118.945,143.481 118.688,144.32 L115.334,154.805 L111.848,154.805 L106.591,138.481" id="Fill-9" fill="#54534F"></path>
            <path d="M161.652,152.484 C164.716,152.484 167.262,150.031 167.262,146.61 C167.262,143.224 164.716,140.806 161.652,140.806 C158.554,140.806 156.038,143.224 156.038,146.61 C156.038,150.031 158.554,152.484 161.652,152.484 L161.652,152.484 Z M161.615,138.097 C166.489,138.097 170.428,141.677 170.428,146.61 C170.428,151.579 166.489,155.19 161.652,155.19 C156.779,155.19 152.842,151.579 152.842,146.61 C152.842,141.677 156.779,138.097 161.615,138.097 L161.615,138.097 Z" id="Fill-10" fill="#54534F"></path>
            <path d="M193.549,138.481 L196.582,138.481 L196.582,141.417 C196.582,142.093 196.484,142.611 196.484,142.611 L196.55,142.611 C197.323,140.257 199.227,138.286 201.742,138.286 C202.032,138.286 202.324,138.321 202.581,138.354 L202.581,141.449 C202.451,141.417 202.003,141.387 201.679,141.387 C198.163,141.387 196.678,144.869 196.678,148.031 L196.678,154.805 L193.549,154.805 L193.549,138.481" id="Fill-11" fill="#54534F"></path>
            <path d="M225.029,132.031 L228.156,132.031 L228.156,144.482 L230.479,144.482 L234.899,138.481 L238.448,138.481 L233.03,145.676 L233.03,145.739 L239.062,154.805 L235.416,154.805 L230.545,147.16 L228.156,147.16 L228.156,154.805 L225.029,154.805 L225.029,132.031" id="Fill-12" fill="#54534F"></path>
            <path d="M261.313,150.677 C262.54,151.869 264.411,152.581 266.12,152.581 C267.766,152.581 268.895,151.805 268.895,150.451 C268.895,147.321 260.506,148.16 260.506,142.805 C260.506,139.707 263.185,138.097 266.38,138.097 C268.249,138.097 270.251,138.61 271.671,139.9 L270.412,142.16 C269.445,141.257 267.736,140.709 266.284,140.709 C264.702,140.709 263.508,141.353 263.508,142.74 C263.508,145.934 271.929,144.999 271.929,150.385 C271.929,153.161 269.54,155.19 266.057,155.19 C263.864,155.19 261.445,154.45 259.832,152.806 L261.313,150.677" id="Fill-13" fill="#54534F"></path>
            <path d="M9.565,46.689 C6.429,46.689 3.886,49.23 3.886,52.367 C3.886,55.505 6.429,58.047 9.565,58.047 C12.703,58.047 15.246,55.505 15.246,52.367 C15.246,49.23 12.703,46.689 9.565,46.689" id="Fill-14" fill="#D9222A"></path>
            <path d="M26.802,34.324 C23.664,34.324 21.122,36.868 21.122,40.002 C21.122,43.142 23.664,45.681 26.802,45.681 C29.938,45.681 32.48,43.142 32.48,40.002 C32.48,36.868 29.938,34.324 26.802,34.324" id="Fill-15" fill="#E15D29"></path>
            <path d="M84.496,47.062 C81.361,47.062 78.818,49.606 78.818,52.742 C78.818,55.88 81.361,58.422 84.496,58.422 C87.634,58.422 90.177,55.88 90.177,52.742 C90.177,49.606 87.634,47.062 84.496,47.062" id="Fill-16" fill="#E15D29"></path>
            <path d="M66.853,34.652 C63.716,34.652 61.172,37.196 61.172,40.332 C61.172,43.469 63.716,46.012 66.853,46.012 C69.988,46.012 72.531,43.469 72.531,40.332 C72.531,37.196 69.988,34.652 66.853,34.652" id="Fill-17" fill="#00A3DB"></path>
            <path d="M101.664,36.365 C98.527,36.365 95.985,38.909 95.985,42.044 C95.985,45.183 98.527,47.724 101.664,47.724 C104.801,47.724 107.344,45.183 107.344,42.044 C107.344,38.909 104.801,36.365 101.664,36.365" id="Fill-18" fill="#00A3DB"></path>
            <path d="M138.538,18.759 C135.401,18.759 132.857,21.301 132.857,24.439 C132.857,27.578 135.401,30.118 138.538,30.118 C141.674,30.118 144.216,27.578 144.216,24.439 C144.216,21.301 141.674,18.759 138.538,18.759" id="Fill-19" fill="#009949"></path>
            <path d="M47.121,31.498 C43.983,31.498 41.44,34.04 41.44,37.177 C41.44,40.316 43.983,42.856 47.121,42.856 C50.256,42.856 52.798,40.316 52.798,37.177 C52.798,34.04 50.256,31.498 47.121,31.498" id="Fill-20" fill="#009949"></path>
            <path d="M202.14,6.429 C199.002,6.429 196.461,8.974 196.461,12.11 C196.461,15.248 199.002,17.79 202.14,17.79 C205.277,17.79 207.818,15.248 207.818,12.11 C207.818,8.974 205.277,6.429 202.14,6.429" id="Fill-21" fill="#009949"></path>
            <path d="M267.679,0 C264.545,0 262,2.543 262,5.68 C262,8.817 264.545,11.359 267.679,11.359 C270.814,11.359 273.359,8.817 273.359,5.68 C273.359,2.543 270.814,0 267.679,0" id="Fill-22" fill="#009949"></path>
        </g>
    </g>
</svg>
