<?xml version="1.0" standalone="no"?>
<!DOCTYPE svg PUBLIC "-//W3C//DTD SVG 1.1//EN" "http://www.w3.org/Graphics/SVG/1.1/DTD/svg11.dtd">
<svg xmlns:xlink="http://www.w3.org/1999/xlink" width="78.763ex" height="8.676ex" style="vertical-align: -3.171ex;" viewBox="0 -2370 33911.5 3735.5" xmlns="http://www.w3.org/2000/svg">
<defs>
<path stroke-width="10" id="E1-MJMAIN-31" d="M213 578L200 573Q186 568 160 563T102 556H83V602H102Q149 604 189 617T245 641T273 663Q275 666 285 666Q294 666 302 660V361L303 61Q310 54 315 52T339 48T401 46H427V0H416Q395 3 257 3Q121 3 100 0H88V46H114Q136 46 152 46T177 47T193 50T201 52T207 57T213 61V578Z"></path>
<path stroke-width="10" id="E1-MJMATHI-4E" d="M234 637Q231 637 226 637Q201 637 196 638T191 649Q191 676 202 682Q204 683 299 683Q376 683 387 683T401 677Q612 181 616 168L670 381Q723 592 723 606Q723 633 659 637Q635 637 635 648Q635 650 637 660Q641 676 643 679T653 683Q656 683 684 682T767 680Q817 680 843 681T873 682Q888 682 888 672Q888 650 880 642Q878 637 858 637Q787 633 769 597L620 7Q618 0 599 0Q585 0 582 2Q579 5 453 305L326 604L261 344Q196 88 196 79Q201 46 268 46H278Q284 41 284 38T282 19Q278 6 272 0H259Q228 2 151 2Q123 2 100 2T63 2T46 1Q31 1 31 10Q31 14 34 26T39 40Q41 46 62 46Q130 49 150 85Q154 91 221 362L289 634Q287 635 234 637Z"></path>
<path stroke-width="10" id="E1-MJSZ2-2211" d="M60 948Q63 950 665 950H1267L1325 815Q1384 677 1388 669H1348L1341 683Q1320 724 1285 761Q1235 809 1174 838T1033 881T882 898T699 902H574H543H251L259 891Q722 258 724 252Q725 250 724 246Q721 243 460 -56L196 -356Q196 -357 407 -357Q459 -357 548 -357T676 -358Q812 -358 896 -353T1063 -332T1204 -283T1307 -196Q1328 -170 1348 -124H1388Q1388 -125 1381 -145T1356 -210T1325 -294L1267 -449L666 -450Q64 -450 61 -448Q55 -446 55 -439Q55 -437 57 -433L590 177Q590 178 557 222T452 366T322 544L56 909L55 924Q55 945 60 948Z"></path>
<path stroke-width="10" id="E1-MJMATHI-69" d="M184 600Q184 624 203 642T247 661Q265 661 277 649T290 619Q290 596 270 577T226 557Q211 557 198 567T184 600ZM21 287Q21 295 30 318T54 369T98 420T158 442Q197 442 223 419T250 357Q250 340 236 301T196 196T154 83Q149 61 149 51Q149 26 166 26Q175 26 185 29T208 43T235 78T260 137Q263 149 265 151T282 153Q302 153 302 143Q302 135 293 112T268 61T223 11T161 -11Q129 -11 102 10T74 74Q74 91 79 106T122 220Q160 321 166 341T173 380Q173 404 156 404H154Q124 404 99 371T61 287Q60 286 59 284T58 281T56 279T53 278T49 278T41 278H27Q21 284 21 287Z"></path>
<path stroke-width="10" id="E1-MJMAIN-3D" d="M56 347Q56 360 70 367H707Q722 359 722 347Q722 336 708 328L390 327H72Q56 332 56 347ZM56 153Q56 168 72 173H708Q722 163 722 153Q722 140 707 133H70Q56 140 56 153Z"></path>
<path stroke-width="10" id="E1-MJMAIN-28" d="M94 250Q94 319 104 381T127 488T164 576T202 643T244 695T277 729T302 750H315H319Q333 750 333 741Q333 738 316 720T275 667T226 581T184 443T167 250T184 58T225 -81T274 -167T316 -220T333 -241Q333 -250 318 -250H315H302L274 -226Q180 -141 137 -14T94 250Z"></path>
<path stroke-width="10" id="E1-MJMATHI-78" d="M52 289Q59 331 106 386T222 442Q257 442 286 424T329 379Q371 442 430 442Q467 442 494 420T522 361Q522 332 508 314T481 292T458 288Q439 288 427 299T415 328Q415 374 465 391Q454 404 425 404Q412 404 406 402Q368 386 350 336Q290 115 290 78Q290 50 306 38T341 26Q378 26 414 59T463 140Q466 150 469 151T485 153H489Q504 153 504 145Q504 144 502 134Q486 77 440 33T333 -11Q263 -11 227 52Q186 -10 133 -10H127Q78 -10 57 16T35 71Q35 103 54 123T99 143Q142 143 142 101Q142 81 130 66T107 46T94 41L91 40Q91 39 97 36T113 29T132 26Q168 26 194 71Q203 87 217 139T245 247T261 313Q266 340 266 352Q266 380 251 392T217 404Q177 404 142 372T93 290Q91 281 88 280T72 278H58Q52 284 52 289Z"></path>
<path stroke-width="10" id="E1-MJMAIN-2212" d="M84 237T84 250T98 270H679Q694 262 694 250T679 230H98Q84 237 84 250Z"></path>
<path stroke-width="10" id="E1-MJMAIN-AF" d="M69 544V590H430V544H69Z"></path>
<path stroke-width="10" id="E1-MJMAIN-29" d="M60 749L64 750Q69 750 74 750H86L114 726Q208 641 251 514T294 250Q294 182 284 119T261 12T224 -76T186 -143T145 -194T113 -227T90 -246Q87 -249 86 -250H74Q66 -250 63 -250T58 -247T55 -238Q56 -237 66 -225Q221 -64 221 250T66 725Q56 737 55 738Q55 746 60 749Z"></path>
<path stroke-width="10" id="E1-MJMAIN-32" d="M109 429Q82 429 66 447T50 491Q50 562 103 614T235 666Q326 666 387 610T449 465Q449 422 429 383T381 315T301 241Q265 210 201 149L142 93L218 92Q375 92 385 97Q392 99 409 186V189H449V186Q448 183 436 95T421 3V0H50V19V31Q50 38 56 46T86 81Q115 113 136 137Q145 147 170 174T204 211T233 244T261 278T284 308T305 340T320 369T333 401T340 431T343 464Q343 527 309 573T212 619Q179 619 154 602T119 569T109 550Q109 549 114 549Q132 549 151 535T170 489Q170 464 154 447T109 429Z"></path>
<path stroke-width="10" id="E1-MJSZ4-E001" d="M702 589Q706 601 718 605H1061Q1076 597 1076 585Q1076 572 1061 565H742V0Q734 -14 724 -14H722H720Q708 -14 702 0V589Z"></path>
<path stroke-width="10" id="E1-MJSZ4-23B7" d="M742 -871Q740 -873 737 -876T733 -880T730 -882T724 -884T714 -885H702L222 569L180 484Q138 399 137 399Q131 404 124 412L111 425L265 736L702 -586V168L703 922Q713 935 722 935Q734 935 742 920V-871Z"></path>
<path stroke-width="10" id="E1-MJSZ4-E000" d="M722 -14H720Q708 -14 702 0V306L703 612Q713 625 722 625Q734 625 742 610V0Q734 -14 724 -14H722Z"></path>
<path stroke-width="10" id="E1-MJSZ4-28" d="M758 -1237T758 -1240T752 -1249H736Q718 -1249 717 -1248Q711 -1245 672 -1199Q237 -706 237 251T672 1700Q697 1730 716 1749Q718 1750 735 1750H752Q758 1744 758 1741Q758 1737 740 1713T689 1644T619 1537T540 1380T463 1176Q348 802 348 251Q348 -242 441 -599T744 -1218Q758 -1237 758 -1240Z"></path>
<path stroke-width="10" id="E1-MJSZ4-29" d="M33 1741Q33 1750 51 1750H60H65Q73 1750 81 1743T119 1700Q554 1207 554 251Q554 -707 119 -1199Q76 -1250 66 -1250Q65 -1250 62 -1250T56 -1249Q55 -1249 53 -1249T49 -1250Q33 -1250 33 -1239Q33 -1236 50 -1214T98 -1150T163 -1052T238 -910T311 -727Q443 -335 443 251Q443 402 436 532T405 831T339 1142T224 1438T50 1716Q33 1737 33 1741Z"></path>
<path stroke-width="10" id="E1-MJMAIN-2E" d="M78 60Q78 84 95 102T138 120Q162 120 180 104T199 61Q199 36 182 18T139 0T96 17T78 60Z"></path>
</defs>
<g stroke="currentColor" fill="currentColor" stroke-width="0" transform="matrix(1 0 0 -1 0 0)">
<g transform="translate(0,1977)">
 <use xlink:href="#E1-MJSZ4-E001" x="0" y="-615"></use>
<g transform="translate(0,-1377.385672100616) scale(1,1.2415522395285292)">
 <use xlink:href="#E1-MJSZ4-E000"></use>
</g>
 <use xlink:href="#E1-MJSZ4-23B7" x="0" y="-2303"></use>
</g>
<rect stroke="none" width="6892" height="60" x="1061" y="1917"></rect>
<g transform="translate(1061,0)">
<g transform="translate(120,0)">
<rect stroke="none" width="1013" height="60" x="0" y="220"></rect>
 <use xlink:href="#E1-MJMAIN-31" x="254" y="676"></use>
 <use xlink:href="#E1-MJMATHI-4E" x="60" y="-713"></use>
</g>
<g transform="translate(1419,0)">
 <use xlink:href="#E1-MJSZ2-2211" x="0" y="0"></use>
<g transform="translate(145,-1105)">
 <use transform="scale(0.707)" xlink:href="#E1-MJMATHI-69" x="0" y="0"></use>
 <use transform="scale(0.707)" xlink:href="#E1-MJMAIN-3D" x="350" y="0"></use>
 <use transform="scale(0.707)" xlink:href="#E1-MJMAIN-31" x="1133" y="0"></use>
</g>
 <use transform="scale(0.707)" xlink:href="#E1-MJMATHI-4E" x="578" y="1640"></use>
</g>
 <use xlink:href="#E1-MJMAIN-28" x="2868" y="0"></use>
<g transform="translate(3262,0)">
 <use xlink:href="#E1-MJMATHI-78" x="0" y="0"></use>
 <use transform="scale(0.707)" xlink:href="#E1-MJMATHI-69" x="816" y="-213"></use>
</g>
 <use xlink:href="#E1-MJMAIN-2212" x="4409" y="0"></use>
<g transform="translate(5414,0)">
 <use xlink:href="#E1-MJMATHI-78" x="24" y="0"></use>
<g transform="translate(0,274)">
 <use transform="scale(0.707)" xlink:href="#E1-MJMAIN-AF" x="-74" y="0"></use>
<g transform="translate(241.64034331370345,0) scale(0.26039120634148394,1)">
 <use transform="scale(0.707)" xlink:href="#E1-MJMAIN-AF"></use>
</g>
 <use transform="scale(0.707)" xlink:href="#E1-MJMAIN-AF" x="381" y="0"></use>
</g>
</g>
<g transform="translate(6041,0)">
 <use xlink:href="#E1-MJMAIN-29" x="0" y="0"></use>
 <use transform="scale(0.707)" xlink:href="#E1-MJMAIN-32" x="557" y="583"></use>
</g>
</g>
 <use xlink:href="#E1-MJMAIN-3D" x="8230" y="0"></use>
<g transform="translate(9291,0)">
<g transform="translate(0,1987)">
 <use xlink:href="#E1-MJSZ4-E001" x="0" y="-615"></use>
<g transform="translate(0,-1426.0037139605463) scale(1,1.3181160849772382)">
 <use xlink:href="#E1-MJSZ4-E000"></use>
</g>
 <use xlink:href="#E1-MJSZ4-23B7" x="0" y="-2353"></use>
</g>
<rect stroke="none" width="7974" height="60" x="1061" y="1927"></rect>
<g transform="translate(1061,0)">
<g transform="translate(120,0)">
<rect stroke="none" width="1013" height="60" x="0" y="220"></rect>
 <use xlink:href="#E1-MJMAIN-31" x="254" y="676"></use>
 <use xlink:href="#E1-MJMATHI-4E" x="60" y="-713"></use>
</g>
<g transform="translate(1419,0)">
 <use xlink:href="#E1-MJSZ4-28"></use>
<g transform="translate(797,0)">
 <use xlink:href="#E1-MJSZ2-2211" x="0" y="0"></use>
<g transform="translate(145,-1105)">
 <use transform="scale(0.707)" xlink:href="#E1-MJMATHI-69" x="0" y="0"></use>
 <use transform="scale(0.707)" xlink:href="#E1-MJMAIN-3D" x="350" y="0"></use>
 <use transform="scale(0.707)" xlink:href="#E1-MJMAIN-31" x="1133" y="0"></use>
</g>
 <use transform="scale(0.707)" xlink:href="#E1-MJMATHI-4E" x="578" y="1640"></use>
</g>
<g transform="translate(2412,0)">
 <use xlink:href="#E1-MJMATHI-78" x="0" y="0"></use>
 <use transform="scale(0.707)" xlink:href="#E1-MJMAIN-32" x="816" y="497"></use>
 <use transform="scale(0.707)" xlink:href="#E1-MJMATHI-69" x="816" y="-439"></use>
</g>
 <use xlink:href="#E1-MJSZ4-29" x="3446" y="0"></use>
</g>
 <use xlink:href="#E1-MJMAIN-2212" x="5885" y="0"></use>
<g transform="translate(6890,0)">
 <use xlink:href="#E1-MJMATHI-78" x="24" y="0"></use>
<g transform="translate(0,274)">
 <use transform="scale(0.707)" xlink:href="#E1-MJMAIN-AF" x="-74" y="0"></use>
<g transform="translate(241.64034331370345,0) scale(0.26039120634148394,1)">
 <use transform="scale(0.707)" xlink:href="#E1-MJMAIN-AF"></use>
</g>
 <use transform="scale(0.707)" xlink:href="#E1-MJMAIN-AF" x="381" y="0"></use>
</g>
 <use transform="scale(0.707)" xlink:href="#E1-MJMAIN-32" x="886" y="743"></use>
</g>
</g>
</g>
 <use xlink:href="#E1-MJMAIN-3D" x="18604" y="0"></use>
<g transform="translate(19665,0)">
<g transform="translate(0,2192)">
 <use xlink:href="#E1-MJSZ4-E001" x="0" y="-615"></use>
<g transform="translate(0,-1623.523016498405) scale(1,1.6291701047218976)">
 <use xlink:href="#E1-MJSZ4-E000"></use>
</g>
 <use xlink:href="#E1-MJSZ4-23B7" x="0" y="-2558"></use>
</g>
<rect stroke="none" width="12901" height="60" x="1061" y="2132"></rect>
<g transform="translate(1061,0)">
 <use xlink:href="#E1-MJSZ4-28"></use>
<g transform="translate(797,0)">
<g transform="translate(120,0)">
<rect stroke="none" width="1013" height="60" x="0" y="220"></rect>
 <use xlink:href="#E1-MJMAIN-31" x="254" y="676"></use>
 <use xlink:href="#E1-MJMATHI-4E" x="60" y="-713"></use>
</g>
</g>
<g transform="translate(2216,0)">
 <use xlink:href="#E1-MJSZ2-2211" x="0" y="0"></use>
<g transform="translate(145,-1105)">
 <use transform="scale(0.707)" xlink:href="#E1-MJMATHI-69" x="0" y="0"></use>
 <use transform="scale(0.707)" xlink:href="#E1-MJMAIN-3D" x="350" y="0"></use>
 <use transform="scale(0.707)" xlink:href="#E1-MJMAIN-31" x="1133" y="0"></use>
</g>
 <use transform="scale(0.707)" xlink:href="#E1-MJMATHI-4E" x="578" y="1640"></use>
</g>
<g transform="translate(3832,0)">
 <use xlink:href="#E1-MJMATHI-78" x="0" y="0"></use>
 <use transform="scale(0.707)" xlink:href="#E1-MJMAIN-32" x="816" y="497"></use>
 <use transform="scale(0.707)" xlink:href="#E1-MJMATHI-69" x="816" y="-439"></use>
</g>
 <use xlink:href="#E1-MJSZ4-29" x="4866" y="0"></use>
 <use xlink:href="#E1-MJMAIN-2212" x="5885" y="0"></use>
<g transform="translate(6890,0)">
 <use xlink:href="#E1-MJSZ4-28"></use>
<g transform="translate(797,0)">
<g transform="translate(120,0)">
<rect stroke="none" width="1013" height="60" x="0" y="220"></rect>
 <use xlink:href="#E1-MJMAIN-31" x="254" y="676"></use>
 <use xlink:href="#E1-MJMATHI-4E" x="60" y="-713"></use>
</g>
</g>
<g transform="translate(2216,0)">
 <use xlink:href="#E1-MJSZ2-2211" x="0" y="0"></use>
<g transform="translate(145,-1105)">
 <use transform="scale(0.707)" xlink:href="#E1-MJMATHI-69" x="0" y="0"></use>
 <use transform="scale(0.707)" xlink:href="#E1-MJMAIN-3D" x="350" y="0"></use>
 <use transform="scale(0.707)" xlink:href="#E1-MJMAIN-31" x="1133" y="0"></use>
</g>
 <use transform="scale(0.707)" xlink:href="#E1-MJMATHI-4E" x="578" y="1640"></use>
</g>
<g transform="translate(3832,0)">
 <use xlink:href="#E1-MJMATHI-78" x="0" y="0"></use>
 <use transform="scale(0.707)" xlink:href="#E1-MJMATHI-69" x="816" y="-213"></use>
</g>
 <use xlink:href="#E1-MJSZ4-29" x="4756" y="0"></use>
 <use transform="scale(0.707)" xlink:href="#E1-MJMAIN-32" x="7854" y="2102"></use>
</g>
</g>
</g>
 <use xlink:href="#E1-MJMAIN-2E" x="33628" y="0"></use>
</g>
</svg>